<svg width="206" height="224" viewBox="0 0 206 224" fill="none" xmlns="http://www.w3.org/2000/svg">
<path d="M35.9766 177.703C35.4789 182.091 32.405 185.325 29.1081 184.936C25.8112 184.546 23.5406 180.671 24.0383 176.283C24.5359 171.895 27.6099 168.661 30.9068 169.05C34.2036 169.439 36.4743 173.315 35.9766 177.703ZM20.4604 181.879C20.802 185.526 18.8441 188.676 16.0983 188.909C13.3524 189.141 10.8474 186.374 10.5146 182.731C10.1819 179.088 12.1221 175.929 14.8679 175.697C17.6137 175.465 20.1188 178.232 20.4515 181.875L20.4604 181.879ZM9.36481 198.541C19.8172 188.18 29.5398 188.829 33.198 190.528C36.8561 192.226 43.626 199.235 42.4562 213.906C42.3762 214.913 42.0902 215.9 41.6625 216.821L41.5967 216.963C40.5356 219.248 37.8249 220.24 35.5397 219.179C34.5211 218.706 33.5689 218.113 32.7009 217.408L25.8111 211.841C24.6122 210.875 23.195 210.217 21.6835 209.924L12.9842 208.254C11.8859 208.045 10.8186 207.7 9.79995 207.227C7.51473 206.166 6.52305 203.456 7.58409 201.17L7.64989 201.029C8.0776 200.108 8.64702 199.252 9.36481 198.541ZM45.4695 202.546C43.8752 200.298 45.0182 196.77 48.0247 194.677C51.0313 192.585 54.753 192.708 56.3473 194.956C57.9416 197.204 56.7986 200.732 53.7921 202.825C50.7856 204.917 47.0638 204.793 45.4695 202.546ZM39.4005 189.715C36.9754 187.447 37.463 183.012 40.4939 179.8C43.5248 176.588 47.9504 175.822 50.3754 178.089C52.8004 180.357 52.3129 184.792 49.282 188.004C46.2511 191.216 41.8255 191.982 39.4005 189.715Z" fill="#9AB0C3"/>
<path d="M108.977 127.703C108.479 132.091 105.405 135.325 102.108 134.936C98.8112 134.546 96.5406 130.671 97.0383 126.283C97.5359 121.895 100.61 118.661 103.907 119.05C107.204 119.439 109.474 123.315 108.977 127.703ZM93.4604 131.879C93.802 135.526 91.8441 138.676 89.0983 138.909C86.3524 139.141 83.8474 136.374 83.5146 132.731C83.1819 129.088 85.1221 125.929 87.8679 125.697C90.6137 125.465 93.1188 128.232 93.4515 131.875L93.4604 131.879ZM82.3648 148.541C92.8172 138.18 102.54 138.829 106.198 140.528C109.856 142.226 116.626 149.235 115.456 163.906C115.376 164.913 115.09 165.9 114.662 166.821L114.597 166.963C113.536 169.248 110.825 170.24 108.54 169.179C107.521 168.706 106.569 168.113 105.701 167.408L98.8111 161.841C97.6122 160.875 96.195 160.217 94.6835 159.924L85.9842 158.254C84.8859 158.045 83.8186 157.7 82.8 157.227C80.5147 156.166 79.5231 153.456 80.5841 151.17L80.6499 151.029C81.0776 150.108 81.647 149.252 82.3648 148.541ZM118.47 152.546C116.875 150.298 118.018 146.77 121.025 144.677C124.031 142.585 127.753 142.708 129.347 144.956C130.942 147.204 129.799 150.732 126.792 152.825C123.786 154.917 120.064 154.793 118.47 152.546ZM112.4 139.715C109.975 137.447 110.463 133.012 113.494 129.8C116.525 126.588 120.95 125.822 123.375 128.089C125.8 130.357 125.313 134.792 122.282 138.004C119.251 141.216 114.825 141.982 112.4 139.715Z" fill="#9AB0C3"/>
<path d="M95.9766 42.7026C95.4789 47.0906 92.405 50.3254 89.1081 49.9359C85.8112 49.5465 83.5406 45.6713 84.0383 41.2833C84.5359 36.8954 87.6099 33.6605 90.9068 34.05C94.2036 34.4395 96.4743 38.3147 95.9766 42.7026ZM80.4604 46.879C80.802 50.5261 78.8441 53.6762 76.0983 53.9086C73.3524 54.1411 70.8474 51.3737 70.5146 47.7307C70.1819 44.0878 72.1221 40.9295 74.8679 40.697C77.6137 40.4645 80.1188 43.2319 80.4515 46.8749L80.4604 46.879ZM69.3648 63.541C79.8172 53.1805 89.5398 53.8294 93.198 55.5279C96.8561 57.2264 103.626 64.235 102.456 78.9056C102.376 79.9128 102.09 80.8998 101.662 81.8209L101.597 81.9627C100.536 84.2479 97.8249 85.2396 95.5397 84.1785C94.5211 83.7056 93.5689 83.1127 92.7009 82.4082L85.8111 76.8405C84.6122 75.8747 83.195 75.2167 81.6835 74.9241L72.9842 73.2537C71.8859 73.0452 70.8186 72.7004 69.8 72.2274C67.5147 71.1664 66.5231 68.4557 67.5841 66.1704L67.6499 66.0287C68.0776 65.1075 68.647 64.2522 69.3648 63.541ZM105.47 67.5459C103.875 65.2982 105.018 61.7698 108.025 59.6773C111.031 57.5847 114.753 57.7085 116.347 59.9561C117.942 62.2037 116.799 65.7322 113.792 67.8247C110.786 69.9172 107.064 69.7935 105.47 67.5459ZM99.4005 54.7147C96.9754 52.4475 97.463 48.0118 100.494 44.8C103.525 41.5883 107.95 40.8222 110.375 43.0894C112.8 45.3567 112.313 49.7924 109.282 53.0041C106.251 56.2159 101.825 56.982 99.4005 54.7147Z" fill="#9AB0C3"/>
<path d="M177.977 14.7026C177.479 19.0906 174.405 22.3254 171.108 21.9359C167.811 21.5465 165.541 17.6713 166.038 13.2833C166.536 8.89538 169.61 5.66054 172.907 6.05001C176.204 6.43948 178.474 10.3147 177.977 14.7026ZM162.46 18.879C162.802 22.5261 160.844 25.6762 158.098 25.9086C155.352 26.1411 152.847 23.3737 152.515 19.7307C152.182 16.0878 154.122 12.9295 156.868 12.697C159.614 12.4645 162.119 15.2319 162.452 18.8749L162.46 18.879ZM151.365 35.541C161.817 25.1805 171.54 25.8294 175.198 27.5279C178.856 29.2264 185.626 36.235 184.456 50.9056C184.376 51.9128 184.09 52.8998 183.662 53.8209L183.597 53.9627C182.536 56.2479 179.825 57.2396 177.54 56.1785C176.521 55.7056 175.569 55.1127 174.701 54.4082L167.811 48.8405C166.612 47.8747 165.195 47.2167 163.684 46.9241L154.984 45.2537C153.886 45.0452 152.819 44.7004 151.8 44.2274C149.515 43.1664 148.523 40.4557 149.584 38.1704L149.65 38.0287C150.078 37.1075 150.647 36.2522 151.365 35.541ZM187.47 39.5459C185.875 37.2982 187.018 33.7698 190.025 31.6773C193.031 29.5847 196.753 29.7085 198.347 31.9561C199.942 34.2037 198.799 37.7322 195.792 39.8247C192.786 41.9172 189.064 41.7935 187.47 39.5459ZM181.4 26.7147C178.975 24.4475 179.463 20.0118 182.494 16.8C185.525 13.5883 189.95 12.8222 192.375 15.0894C194.8 17.3567 194.313 21.7924 191.282 25.0041C188.251 28.2159 183.825 28.982 181.4 26.7147Z" fill="#9AB0C3"/>
</svg>
